# xmcd
#
# Track frame offsets: 
#        150
#        16048
#        36779
#        57580
#        74243
#        92961
#        109962
#        128202
#        150355
#        166448
#        186331
#        202997
#        221854
#        241404
#        259949
#        284357
#        306551
#
# Disc length: 4293 seconds
#
# Revision: 11
# Processed by: cddbd v1.5.2PL0 Copyright (c) Steve Scherf et al.
# Submitted via: ExactAudioCopy v0.90b4
#
DISCID=0910c311
DTITLE=Daniel - 20 Anos de Carreira (Ao Vivo)
DYEAR=2003
DGENRE=Latin
TTITLE0=Eu Sem Você
TTITLE1=Evidências
TTITLE2=Um Homem Apaixonado
TTITLE3=Dá-me Dá-me
TTITLE4=Vida Minha
TTITLE5=Quando o Coração se Apaixona
TTITLE6=Só Seu Amor Não Vai Embora (feat. Rick and Renner)
TTITLE7=Estou Apaixonado
TTITLE8=Meu Reino Encantado (feat. José Camillo)
TTITLE9=O Mais Importante é o Verdadeiro Amor
TTITLE10=A Ferro e Fogo (feat. Zezé di Camargo and Luciano)
TTITLE11=Pout Pourri Country: Peão Apaixonado - Pode Passar o Rodo - E
TTITLE11=u me Amarrei
TTITLE12=Adoro Amar Você
TTITLE13=Só o Amor
TTITLE14=Te Amo Cada Vez Mais
TTITLE15=Pout Pourri: Brasil, Samba e Forró - Dengo - Fricote
TTITLE16=É Gol
EXTD=YEAR: 2003
EXTT0=
EXTT1=
EXTT2=
EXTT3=
EXTT4=
EXTT5=
EXTT6=
EXTT7=
EXTT8=
EXTT9=
EXTT10=
EXTT11=
EXTT12=
EXTT13=
EXTT14=
EXTT15=
EXTT16=
PLAYORDER=
